<svg xmlns="http://www.w3.org/2000/svg" style="display:none">
  <symbol id="icon-house" viewBox="0 0 128 128">
    <polygon style="fill:#AB5832;" points="19.16,48.94 19.16,28.58 17.52,28.68 17.52,16.14 33.34,16.04 33.34,28.39 31.7,28.39 
      31.7,40.35 "/>
    <polygon style="fill:#FFF3E1;" points="64.11,23.33 18.67,68.99 19.02,111.2 108.77,110.35 108.9,65.35 "/>
    <path style="fill:#5F4E47;" d="M16.97,103.79l3.14-1.73V67.98l-2.92,1.95C17.18,69.93,17.51,103.79,16.97,103.79z"/>
    <polygon style="fill:#5F4E47;" points="107.2,69.82 107.2,101.85 110.34,103.58 110.34,71.01 "/>
    <polygon style="fill:#BCAA93;" points="64.42,28.21 17.18,72.42 17.18,61.27 64.47,16.48 110.34,63.98 110.34,73.39 "/>
    <path style="fill:#AB5832;" d="M12.55,59.36l-2.77,5.11l7.43-0.11c0,0,46.35-45.08,47.35-45.12c1.21-0.05,45.76,45.91,45.76,45.91
      l6.59-0.1L67.47,11.79l-7.26-0.48L12.55,59.36z"/>
    <path style="fill:#ED6C31;" d="M4,63.19c-0.78,0.95-0.01,1.45,0.62,1.45s7.89-0.21,7.89-0.21l50.04-48.69c0,0,1.15-1.18,1.97-1.14
      c0.89,0.04,2.04,1.17,2.04,1.17l50.28,49.29c0,0,5.73,0.02,6.64-0.21c0.99-0.24,0.49-1.18-0.73-2.49
      c-0.9-0.97-51.73-51.25-52.57-52.12c-2.5-2.58-3.72-4.08-6.08-3.98c-2.37,0.1-3.77,1.85-6.14,4.03C57.26,10.95,4.33,62.79,4,63.19z"
      />
    <g>
      <path style="fill:#A6CFD5;" d="M93.5,80.83h10.25V72.3c0-1.59-1.29-2.87-2.87-2.87H93.5V80.83z"/>
      <path style="fill:#A6CFD5;" d="M90.42,80.83V69.43h-8c-1.59,0-2.87,1.29-2.87,2.87v8.54H90.42z"/>
      <path style="fill:#A6CFD5;" d="M90.42,84.07H79.55v8c0,1.59,1.29,2.87,2.87,2.87h8V84.07z"/>
      <path style="fill:#A6CFD5;" d="M93.5,84.07v10.87h7.38c1.59,0,2.87-1.29,2.87-2.87v-8H93.5z"/>
    </g>
    <g>
      <path style="fill:#A6CFD5;" d="M36.75,80.83H47V72.3c0-1.59-1.29-2.87-2.87-2.87h-7.38V80.83z"/>
      <path style="fill:#A6CFD5;" d="M33.66,80.83V69.43h-8c-1.59,0-2.87,1.29-2.87,2.87v8.54H33.66z"/>
      <path style="fill:#A6CFD5;" d="M33.66,84.07H22.8v8c0,1.59,1.29,2.87,2.87,2.87h8V84.07z"/>
      <path style="fill:#A6CFD5;" d="M36.75,84.07v10.87h7.38c1.59,0,2.87-1.29,2.87-2.87v-8H36.75z"/>
    </g>
    <path style="fill:#D27857;" d="M50.34,106.73c0,0-0.15-24.74,0-30.99c0.15-6.24,6.01-11.64,12.8-11.41
      c8.4,0.29,12.72,5.01,13.03,11.1c0.31,6.09,0.31,31.68,0.31,31.68L50.34,106.73z"/>
    <path style="fill:#AB5932;" d="M53.47,108.07c0,0-0.12-26.36,0-31.24c0.15-6.05,4.71-9.23,10.01-8.93c6.17,0.35,9.22,3.63,9.46,8.4
      c0.24,4.76,0.24,31.79,0.24,31.79L53.47,108.07z"/>
    <g>
      <path style="fill:#D27857;" d="M69.99,86.58c-0.02-4.34-0.06-8.17-0.12-9.34c-0.16-3.15-2.4-5.6-6.75-5.75
        c-3.51-0.12-6.4,2.62-6.48,5.85c-0.03,1.19-0.02,4.93,0,9.19L69.99,86.58z"/>
      <path style="fill:#D27857;" d="M56.67,91.45c0.04,5.81,0.09,11.16,0.09,11.16l13.27,0.04c0,0,0-5.33-0.02-11.14L56.67,91.45z"/>
    </g>
    <path style="fill:#FFBA02;" d="M70.03,88.81c-0.05,1.41,0.52,2.55,2.19,2.55c1.67,0,2.28-0.78,2.4-2.29c0.1-1.35-0.83-2.55-2.4-2.45
      C70.66,86.73,70.07,87.82,70.03,88.81z"/>
    <path style="fill:#728037;" d="M79.61,116.31c0,0,10.88,0.11,18.74-0.12c7.86-0.23,13.55,0.12,14.72-1.06
      c1.17-1.17,1.15-11.14-4.3-13.84c-5.01-2.48-8.25,0.04-9.97,0.21c-2.27,0.23-5.08-1.18-7.14-1.22c-8.51-0.18-11.49,6.51-11.49,6.51
      L79.61,116.31z"/>
    <path style="fill:#728037;" d="M14.53,115.49c0.91,0.85,7.86,0.88,16.25,0.82c8.39-0.06,15.14,0.02,15.14,0.02l1.4-8.47l-1.7-1.41
      c0,0,0.19-4.24-5.16-5.69c-3.7-1-6.92,0.65-10.03,0.7c-3.11,0.06-5.98-1.35-9.44-0.53c-3.22,0.76-5.73,2.86-6.75,7.1
      C13.53,110.97,13.71,114.72,14.53,115.49z"/>
    <path style="fill:#B0B0B0;" d="M44.92,125.17l0.07-8.85h0.65l-0.01-9.86h34.73l-0.12,9.86h0.76v8.62
      C80.99,124.93,44.92,125.22,44.92,125.17z"/>
    <polygon style="fill:#9B9B9B;" points="80.99,121.3 80.99,124.93 44.91,125.17 44.94,121.27 "/>
    <polygon style="fill:#9B9B9B;" points="45.62,112.48 80.27,112.49 80.27,116.31 45.62,116.31 "/>
  </symbol>

  <symbol id="icon-folder" viewBox="0 0 128 128">
    <g>
      <path style="fill:#F3AB47;" d="M46.19,27.93v-1.74c0-3.47-2.08-4.19-4.36-3.78l-19.1,3.45c-2.29,0.41-3.97,2.47-3.97,4.87v4.44
        c0,1.62-1.13,3.01-2.68,3.29l-0.34,0.06c-1.34,0.24-2.33,1.44-2.33,2.85l1.08,74.03c0,0-0.08,1.18,1.03,1.26
        c1.15,0.08,2.02-0.8,3.17-1.07l89.64-21.36c1.34-0.24,2.33-1.44,2.33-2.85V25.35c0-1.79-1.56-3.15-3.27-2.85l-56.31,9.69
        C48.53,32.64,46.19,31.68,46.19,27.93z"/>
      <path style="fill:#FFE36C;" d="M112.56,91.65l2.02-59.65c0-1.79-1.56-3.15-3.27-2.85l-56.27,9.62c-2.62,0.45-4.59,2.64-4.75,5.29
        l-0.23,3.77c-0.18,3.02-2.43,5.52-5.41,6.02l-22.65,3.81c-2.24,0.38-3.89,2.32-3.89,4.6l-2.59,54.38c0,0,0.33,0.14,4.04-0.8
        l89.2-21.11C110.11,94.51,111.65,93.25,112.56,91.65z"/>
      <path style="fill:none;stroke:#FFF9C4;stroke-width:2;stroke-linecap:round;stroke-miterlimit:10;" d="M21.63,58.73l22.76-3.89
        c5.7-1.27,6.61-3.43,6.6-7.97L51,45.7c0.18-3.42,1.84-5.44,5.21-6.02l55.67-9.65"/>
    </g>
  </symbol>

  <symbol id="icon-file" viewBox="0 0 128 128">
    <g>
      <polygon style="fill:#FFFFFF;" points="87.85,6.19 16.8,6.19 16.8,121.64 111.42,121.64 111.42,28.8 	"/>
      <g>
        <g>
          <g>
              <line style="fill:none;stroke:#B0BEC5;stroke-width:3.8648;stroke-linecap:round;stroke-miterlimit:10;" x1="33.34" y1="41.05" x2="94.5" y2="41.05"/>
            
              <line style="fill:none;stroke:#B0BEC5;stroke-width:3.8648;stroke-linecap:round;stroke-miterlimit:10;" x1="33.34" y1="55.68" x2="94.5" y2="55.68"/>
            
              <line style="fill:none;stroke:#B0BEC5;stroke-width:3.8648;stroke-linecap:round;stroke-miterlimit:10;" x1="33.34" y1="70.3" x2="94.5" y2="70.3"/>
            
              <line style="fill:none;stroke:#B0BEC5;stroke-width:3.8648;stroke-linecap:round;stroke-miterlimit:10;" x1="33.34" y1="84.93" x2="94.5" y2="84.93"/>
            
              <line style="fill:none;stroke:#B0BEC5;stroke-width:3.8648;stroke-linecap:round;stroke-miterlimit:10;" x1="33.34" y1="99.56" x2="59.49" y2="99.56"/>
          </g>
        </g>
      </g>
      <path style="fill:#6FBFF0;" d="M109.45,23.59L92.79,6.88C90.83,5.03,88.24,4,85.54,4h-68.5c-1.55,0-2.81,1.26-2.81,2.81v114.38
        c0,1.55,1.26,2.81,2.81,2.81h93.93c1.55,0,2.81-1.26,2.81-2.81l0-89.91C113.77,28.37,111.57,25.59,109.45,23.59z M109.77,120H18.23
        V8h64.66c2.12,0,3.85,1.72,3.85,3.85v17.88h17.34c3.14,0,5.69,1.73,5.69,5.69V120z"/>
    </g>
  </symbol>

  <symbol id="icon-upload" viewBox="0 0 128 128">
    <g>
      <polygon style="fill:#A15D38;" points="118.53,102.36 9.47,102.36 21.47,68.15 106.53,68.15 	"/>
      <polygon style="fill:#4E342E;" points="122.12,120.29 122.12,89.46 106.92,47.88 21.08,47.88 5.88,89.46 5.88,120.29 23.46,70.08 
        104.54,70.08 	"/>
      <path style="fill:#F29657;" d="M99.5,86.45c-6.33,0-4.93,11.47-17.1,11.47H43.3c-8.36,0-9.73-11.47-14.41-11.47
        c-3.69,0-23.89,0-23.89,0v35.09C5,122.9,6.1,124,7.46,124h113.07c1.36,0,2.47-1.1,2.47-2.47V86.45
        C123,86.45,102.73,86.45,99.5,86.45z"/>
      <path style="fill:#FFCC80;" d="M122.87,85.94l-13.76-38.7c-0.34-1.02-1.3-1.7-2.37-1.7H21.26c-1.07,0-2.03,0.68-2.37,1.7
        L5.13,85.94c-0.41,1.21,0.49,2.47,1.77,2.47h20.92c1.51,0,2.88,0.85,3.56,2.2c1.68,3.33,5.67,9.27,12.88,9.27
        c4.95,0,34.55,0,39.5,0c7.2,0,11.2-5.94,12.88-9.27c0.68-1.35,2.05-2.2,3.56-2.2h20.92C122.38,88.41,123.28,87.15,122.87,85.94z
        M115.48,84.43h-15.3c-3.02,0-5.75,1.68-7.11,4.4c-1.33,2.64-4.31,7.08-9.32,7.08h-39.5c-5.01,0-7.99-4.43-9.32-7.08
        c-1.36-2.71-4.09-4.4-7.11-4.4h-15.3c-1.31,0-2.23-1.29-1.81-2.53l11.08-30.76c0.33-0.96,1.23-1.61,2.24-1.61h79.95
        c1.02,0,1.92,0.65,2.24,1.61L117.3,81.9C117.72,83.14,116.79,84.43,115.48,84.43z"/>
    </g>
    <path style="fill:#F44336;" d="M51.37,28.41v12.72c0,0.5,0.4,0.9,0.9,0.9H64h11.73c0.5,0,0.9-0.4,0.9-0.9V28.41
      c0-0.5,0.4-0.9,0.9-0.9l12.11,0.03c0.76,0,1.18-0.89,0.69-1.48L64.69,4.32c-0.36-0.43-1.02-0.43-1.38,0L37.67,26.06
      c-0.49,0.59-0.07,1.48,0.69,1.48l12.11-0.03C50.96,27.51,51.37,27.91,51.37,28.41z"/>
  </symbol>

  <symbol id="icon-plus" viewBox="0 0 24 24">
    <path style="fill:currentColor;" d="M19 13h-6v6h-2v-6H5v-2h6V5h2v6h6v2z" />
  </symbol>
</svg>
